<?xml version="1.0" encoding="utf-8"?>
<!-- Generator: Adobe Illustrator 16.0.0, SVG Export Plug-In . SVG Version: 6.00 Build 0)  -->
<!DOCTYPE svg PUBLIC "-//W3C//DTD SVG 1.1//EN" "http://www.w3.org/Graphics/SVG/1.1/DTD/svg11.dtd">
<svg version="1.1" id="Layer_1" xmlns="http://www.w3.org/2000/svg" xmlns:xlink="http://www.w3.org/1999/xlink" x="0px" y="0px"
	 width="426.406px" height="426.409px" viewBox="0 0 426.406 426.409" enable-background="new 0 0 426.406 426.409"
	 xml:space="preserve">
<g>
	<path fill="#231F20" d="M213.203,0C95.644,0,0,95.643,0,213.203c0,117.56,95.644,213.206,213.203,213.206
		c117.557,0,213.204-95.646,213.204-213.206C426.406,95.643,330.76,0,213.203,0z M289.102,392.88
		c-24.036,10.166-49.57,15.32-75.899,15.32c-26.331,0-51.867-5.154-75.896-15.32c-23.22-9.82-44.076-23.886-61.99-41.794
		c-17.912-17.916-31.973-38.768-41.791-61.983c-10.169-24.032-15.321-49.569-15.321-75.9c0-26.332,5.152-51.868,15.321-75.9
		c9.818-23.216,23.879-44.068,41.791-61.983c17.914-17.913,38.77-31.975,61.99-41.794c24.029-10.164,49.565-15.32,75.896-15.32
		c26.329,0,51.863,5.156,75.895,15.32c23.223,9.819,44.078,23.883,61.989,41.792c17.907,17.913,31.975,38.767,41.792,61.985
		c10.166,24.032,15.318,49.569,15.318,75.9c0,26.331-5.152,51.868-15.318,75.9c-9.826,23.222-23.885,44.076-41.792,61.983
		C333.176,368.995,312.32,383.06,289.102,392.88z"/>
	<path fill="#231F20" d="M193.398,222.305h30.785v-18.203h-30.785c-3.987-27.225-25.562-48.803-52.784-52.789v-30.649H122.41v30.649
		c-27.223,3.986-48.801,25.564-52.789,52.789H38.749v18.203h30.873c3.988,27.221,25.566,48.801,52.789,52.782v30.68h18.205v-30.68
		C167.837,271.097,189.412,249.526,193.398,222.305z M131.511,257.556c-24.453,0-44.35-19.901-44.35-44.358
		c0-24.454,19.896-44.349,44.35-44.349c24.456,0,44.353,19.896,44.353,44.349C175.863,237.655,155.967,257.556,131.511,257.556z"/>
	<polygon fill="#231F20" points="257.744,213.182 198.356,288.343 359.256,288.343 359.256,270.143 235.943,270.143 
		280.903,213.236 235.839,155.66 359.256,155.66 359.256,137.456 198.469,137.456 	"/>
</g>
</svg>
