<?xml version="1.0" encoding="utf-8"?>
<!-- Generator: Adobe Illustrator 24.1.3, SVG Export Plug-In . SVG Version: 6.00 Build 0)  -->
<svg version="1.1" id="Layer_1" xmlns="http://www.w3.org/2000/svg" xmlns:xlink="http://www.w3.org/1999/xlink" x="0px" y="0px"
	 viewBox="0 0 426.4 426.4" style="enable-background:new 0 0 426.4 426.4;" xml:space="preserve">
<style type="text/css">
	.st0{fill:#7F915E;}
</style>
<g>
	<path class="st0" d="M213.2,58C127.6,58,58,127.6,58,213.2s69.6,155.2,155.2,155.2s155.2-69.6,155.2-155.2S298.8,58,213.2,58z
		 M268.5,344c-17.5,7.4-36.1,11.1-55.3,11.1s-37.8-3.8-55.3-11.1c-16.9-7.1-32.1-17.4-45.1-30.4s-23.3-28.2-30.4-45.1
		C75,251,71.2,232.3,71.2,213.2s3.8-37.8,11.1-55.3c7.1-16.9,17.4-32.1,30.4-45.1s28.2-23.3,45.1-30.4c17.5-7.4,36.1-11.1,55.3-11.1
		S251,75,268.5,82.4c16.9,7.1,32.1,17.4,45.1,30.4s23.3,28.2,30.4,45.1c7.4,17.5,11.1,36.1,11.1,55.3s-3.8,37.8-11.1,55.3
		c-7.1,16.9-17.4,32.1-30.4,45.1S285.3,336.9,268.5,344z"/>
	<path class="st0" d="M198.8,219.8h22.4v-13.2h-22.4c-2.9-19.8-18.6-35.5-38.4-38.4v-22.3h-13.2v22.3c-19.8,2.9-35.5,18.6-38.4,38.4
		H86.2v13.2h22.5c2.9,19.8,18.6,35.5,38.4,38.4v22.3h13.2v-22.3C180.2,255.3,195.9,239.6,198.8,219.8z M153.7,245.5
		c-17.8,0-32.2-14.5-32.2-32.3S136,181,153.7,181c17.8,0,32.3,14.5,32.3,32.2C186,231,171.6,245.5,153.7,245.5z"/>
	<polygon class="st0" points="245.6,213.2 202.4,267.9 319.6,267.9 319.6,254.6 229.7,254.6 262.5,213.2 229.7,171.3 319.6,171.3 
		319.6,158.1 202.5,158.1 	"/>
</g>
</svg>
