<?xml version="1.0" encoding="utf-8"?>
<!-- Generator: Adobe Illustrator 24.1.3, SVG Export Plug-In . SVG Version: 6.00 Build 0)  -->
<svg version="1.1" id="Layer_1" xmlns="http://www.w3.org/2000/svg" xmlns:xlink="http://www.w3.org/1999/xlink" x="0px" y="0px"
	 viewBox="0 0 426.4 426.4" style="enable-background:new 0 0 426.4 426.4;" xml:space="preserve">
<style type="text/css">
	.st0{fill:#7F915E;}
</style>
<g>
	<path class="st0" d="M279.6,238.5c0,2.4-0.4,2.7-2.4,2.2c-4.9-1.2-9.8-2.5-14.8-3.1c-3.9-0.5-8.1-0.7-12,0.1
		c-5.4,1.1-10.8,1.2-16.2,2c-2.2,0.3-4.5,0.1-6.7-0.2c-2-0.2-4.4,2-4,4c0.1,0.4,0.3,0.9,0.2,1.3c-2.5,6.3,0.2,13-1.5,19.4
		c1.1,0.1,1.8,0.2,2.8,0.4c0,4-0.3,8,0.1,11.9c0.2,2.2,1.1,4.6,2.5,6.2c1.5,1.7,1.7,3.3,1.4,5.3c-3.4,0-4,0.8-3.2,4.1
		c1.3,4.8,3.4,6.2,8.8,5.7c0.2,0,0.5,0,0.7,0.1c6.5,3.2,13.5,1.4,20.1,1c4.5-0.3,8.2,1.4,12.3,2c3.7,0.5,7.3,1.3,11,0.8
		c1.2-0.2,2.5,0.1,3.7,0.4c7.2,2,14.4,4.2,21.7,6.1c1.5,0.4,3.2,0.2,4.9,0.2c2.7,0.1,5.4,0.1,8,0.4c0.8,0.1,1.5,0.9,2.3,1.4
		c-0.8,0.6-1.6,1.7-2.4,1.7c-3.2,0.1-6.5-0.4-9.7-0.3c-2.3,0.1-4.7,1.3-7,1.2c-3.5-0.2-6.9-1.2-10.3-1.7c-4.6-0.7-9.3-1.3-13.9-1.9
		c-4.6-0.6-9.1-1.1-14.2-1.8c1.8,1.5,3.3,2.7,4.6,4c0.5,0.5,0.7,1.4,1,2c-0.8,0.3-1.8,0.9-2.4,0.7c-1.9-0.6-3.6-1.7-5.4-2.5
		c-1-0.4-2.1-0.9-3.2-1c-4.7-0.6-9.5-0.8-14.1-1.6c-4.2-0.7-8,0.1-11.9,1.9c0.9,1.7,0.7,2.9-1,4c-0.6,0.4-0.7,2-0.5,2.9
		c0.6,2.8-0.1,5-1.2,7.6c-2.8,6.8-5.5,13.8-3.3,21.6c0.5,1.7,0.1,3.6,0.1,5.4c-0.1,2.4-0.5,4.9-0.2,7.3c0.8,8.3,0.2,16.5-0.9,24.7
		c-0.5,3.7,0,7.4,0.1,11.2c0.2,5.1-0.4,10.3-0.6,15.5c0,0.4-0.2,0.8-0.3,1.2c-0.2,0-0.4,0-0.7,0c0-1.9,0-3.9,0-5.8
		c-0.1-3.3,0.4-6.8-0.6-9.8c-1.5-4.4-1.3-8.8-1.3-13.3c0-1.7-0.6-3.3-0.8-5c-0.2-1.5-0.4-3.1-0.5-4.6c-0.2-3.4-0.3-6.9-0.5-10.3
		c0-0.5-0.2-1.1-0.5-1.5c-3.2-3.8-2.6-8.2-2.6-12.6c0-2.1-1.1-4.2-0.6-6.5c1.2-5,2.4-10,3.3-15.1c0.5-3,0.4-6.2,0.3-9.3
		c0-1.1-0.9-2.3-1.6-3.2c-4.2-5-10-4.8-15.4-3.9c-6,1-11.9,3.1-17.9,4.5c-2,0.5-4.2,0.3-6.2,0.2c-0.6,0-1.2-0.7-2-1.2
		c1.6-1.1,2.8-1.9,4.6-3.1c-4.5-0.6-8-2.1-12.1-1.4c-4.3,0.7-8.7,0.5-13.1,0.7c-3.5,0.2-7,0.3-10.4,0.6c-3.4,0.3-6.7,0.8-10.1,0.9
		c-1.1,0-2.3-0.8-3.4-1.3c0-0.2,0-0.4,0-0.7c1.3-0.3,2.5-0.8,3.8-0.9c4.6-0.4,9.2-0.6,13.7-1.1c1.4-0.2,2.8-1.3,3.8-2.4
		c1-1,1.8-1.3,3.2-0.9c1.6,0.4,3.4,0.7,5,0.3c3.4-0.8,7.1-0.6,10-3.2c0.8-0.7,2.7-0.2,4.1-0.1c1.4,0.1,2.9,0.4,4.3,0.3
		c2.2-0.2,4.4-0.6,6.6-1c0.9-0.2,2-0.5,2.6-1.1c1.6-1.5,3.3-1.9,5.3-0.9c0.6,0.3,1.3,0.3,1.9,0.2c3.3,0,6.6-0.1,9.9-0.2
		c3.3-0.1,6.6-0.2,9.9-0.4c0.5,0,1.3-1,1.2-1.4c-0.5-2.7,0.8-5.7-1.2-8.2c-0.3-0.4,0.3-1.6,0.4-2.4c0.5-3.8,1.2-7.6,0-11.6
		c-0.5-1.8,0.1-3.9,0.2-5.8c0.1-2.3,1.3-5.2,0.3-6.8c-1.7-2.8-0.5-4.8,0-7.3c0.4-1.9,0.2-4.3-0.5-6.1c-1.1-2.7-1.6-6-4.4-7.8
		c-0.9-0.6-1.9-1.1-2.9-1.1c-5.8,0.2-11.5,0.5-17.3,0.9c-1.1,0.1-2.3,0.3-3.7,0.5c0.4,0.5,0.6,0.7,0.8,0.9c0.5,0.6,1,1.1,1.5,1.7
		c-0.9,0.3-1.8,1-2.6,0.8c-5.5-1.5-10.8-3.4-16.3-4.8c-5.4-1.5-11-2.7-16.7-1.4c-1.6,0.4-3.2,1.1-4.8,1.8c-0.4,0.2-0.6,0.9-0.7,1.5
		c-0.2,2.2-1.7,3.3-3.8,2.7c-2.5-0.7-5-1.6-7.6-2.1c-4.1-0.8-7.8,0.4-10.6,3.6c-2.1,2.4-1.8,3.8,0.8,5.8c0.4,0.3,0.8,0.7,1.5,1.2
		c-2.4,1.8-2.6,5-5.6,6.5c-2.2,1.1-3.7,3.4-5.4,5.3c-0.4,0.5-0.5,1.5-0.5,2.2c-0.2,2.6-0.3,5.2-0.5,7.7c-0.2,1.9-1.3,2.7-3.3,2.6
		c-1.7-0.1-3.4,0.3-5,0.2c-2.4,0-4.7-0.4-7.1-0.4c-0.9,0-1.9,0.6-2.9,0.6c-1,0-2-0.3-3-0.8c-2-0.9-3.9-1.9-5.9-2.9
		c-1.9-1-4.3-1.2-5-3.9c-0.2-0.7-1.1-1.2-1.8-1.6c-5.2-3.5-9.1-12.1-7.2-18.7c0.6-2.2,0.5-4.6,0.4-6.9c-0.1-3.4,1.2-6.2,3.4-8.6
		c1.1-1.3,2.2-2.6,3.2-3.9c0-0.3-0.1-0.5-0.1-0.8c-1.1-0.1-2.2-0.1-3.2-0.3c-0.9-0.2-1.8-0.6-2.7-0.9c0.6-0.9,1.1-2.5,1.9-2.7
		c5.9-1.5,11.7-1.7,17.5,0.9c4,1.8,8.2,2.6,12.6,1.5c0.7-0.2,1.7,0.1,2.4,0.4c1.1,0.4,2.1,0.9,3.1,1.4c2.5-1.8,1.7-3.8,0.9-6.1
		c-2.3-6.8-3.1-13.8-3-20.9c0-2.1,0.1-4.2-2.1-5.5c-0.5-0.3-0.7-1.3-0.7-2c-0.1-3.5,0-7.1,0-10.6c0-1.5,0-2.8-1.9-3.6
		c-0.8-0.4-1.6-2.3-1.3-3.3c1.5-5.2,3.2-10.5,5.2-15.5c1.8-4.5,4.4-8.8,5.2-13.7c0.4-2.3,0.2-4.6,0.3-6.9c0.1-1.5,0.3-3,0.4-4.5
		c1,0.1,1.6,0.2,2.3,0.3c-0.2,0.5-0.3,1-0.5,1.5c0.2,0,0.3,0,0.5,0.1c0-0.5,0-1,0-1.6c0.3,1.2,0.8,2.3,0.9,3.5
		c0.7,7.9-0.2,15.6-2.8,23.1c-0.3,0.9-0.5,2.1-0.2,2.9c1.6,5.2,1.3,10.4,1,15.7c-0.2,4.3,0.3,8.6,0.5,12.7c0.8,0.1,1,0.2,1.1,0.1
		c1.1-0.3,2.3-0.6,3.4-0.9c0.1,1.4,0.4,2.7,0.3,4.1c-0.1,5-0.5,10-0.3,15.1c0,1.6,1.3,3.2,1.9,4.9c0.3,0.9,0.7,2.1,0.4,2.8
		c-1.4,2.7,0.1,5,1,7.3c0.2,0.6,1.4,1.2,2.2,1.3c2.8,0.4,5.7,0.5,8.5,1.1c2,0.4,3.3-0.1,4.1-1.8c-0.9-1.2-1.9-2.3-2.6-3.5
		c-0.2-0.4-0.2-1.3,0.1-1.5c0.3-0.3,1.2-0.3,1.5-0.1c4.9,3.2,10.3,4.9,16,5.6c0.6,0.1,1.3,0.2,1.8,0c5.5-1.7,10.9-0.4,16.3,0.4
		c6.2,0.9,12.4,1.9,18.6,2.8c0.9,0.1,1.8,0,3.2,0c-1-0.8-1.8-1.2-2.1-1.7c-0.3-0.5-0.3-1.3-0.1-1.9c0.1-0.3,0.8-0.5,1.3-0.6
		c2.5-0.2,4.9-0.4,7.4-0.5c0.8,0,1.6-0.1,2.3,0.2c3.3,1.3,6.2,0.2,9.1-1.3c0.5-0.2,1.1-0.9,1-1.3c-0.5-3.8-1.2-7.6-1.9-11.5
		c-0.1-0.3-0.2-0.6-0.2-0.9c-0.4-2.4-0.5-4.7-1.9-6.9c-1-1.7-1-4-1.5-6.2c-2.6,0.6-0.6,5.3-4.5,4.5c0.2-5.2-0.6-10.3,1.5-15.4
		c0.9-2.1,0.4-4.7,0.7-7c0.6-4.2,1.6-8.3,2.1-12.5c0.2-1.8,1.4-4.1-1.1-5.6c-0.3-0.2-0.5-0.9-0.4-1.2c0.6-3.4,1.5-6.8,1.9-10.2
		c0.3-2.4-0.1-5-0.3-7.5c-0.1-0.8-0.4-1.7-0.3-2.5c0.2-2.2-1.2-3.1-3-3.4c-5.4-0.7-10.7-1.3-16.1-1.8c-0.5,0-1.3,0.5-1.5,1
		c-0.4,1.4-1.1,1.5-2.4,1.4c-3-0.1-6.1,0.1-9.1,0.3c-0.8,0.1-1.7,0.5-2.2,1c-1.7,1.8-3.4,1.7-5.2,0.4c-4-2.9-8.3-2.9-12.8-1.4
		c-3.1,1-5.1,2.8-5.7,6c-0.1,0.4-0.3,0.9-0.4,1.4c-0.9-0.5-1.9-0.7-2.3-1.2c-0.5-0.7-1.2-2.1-0.9-2.6c3.5-4.8,6.5-10.4,13.3-11.4
		c0.7-0.1,1.6-0.5,2-1.1c2.8-4.1,7.2-5.9,11.2-8.4c3.1-1.9,6-3.9,8.9-6.1c1.7-1.3,3.3-2.7,4.4-4.8c1.4-2.8,4.9-3.5,7.6-4.8
		c4.5-2.1,8.9-4.5,13.3-6.9c2.8-1.5,2.4-4.5,2.5-6.9c0.2-4.3,0-8.6-0.3-12.9c-0.1-1.2-1.1-2.3-1.7-3.5c-0.9-1.7-2.1-0.5-3.2-0.5
		c-2.7,0.1-5.4-0.1-8,0.4c-3.9,0.7-7.7,1.9-11.6,2.8c-1.1,0.2-2.4,0.3-3.4-0.1c-4.6-1.7-9.2-2.6-14.3,0c-1.4-1.4-2.8-3.3-4.7-4.5
		c-2.4-1.5-5.1-3-7.9-3.6c-2.7-0.6-5.7,0.1-8.6,0.1c-0.6,0-1.1-0.5-1.7-0.7c0.3-0.5,0.4-1.3,0.8-1.5c2.6-1.3,4.9-2.9,8.4-1.6
		c3.5,1.3,7.6,1.2,11.4,1.8c3.6,0.5,7.2,0.9,10.8,1.4c2.4,0.3,4.5,0.4,6.5-1.6c0.8-0.8,2.5-1.2,3.7-1c5.6,1,11,0.4,16.3-1.6
		c1.5-0.5,3.4-0.3,5,0c1.5,0.2,2.1,0,2.3-1.6c0.4-4.2,1-8.4,1.3-12.7c0.1-2.5-0.4-5.1-0.4-7.6c0-2.4,0.6-4.9,0.2-7.2
		c-0.4-2.2,0.9-3.8,1-5.7c0.3-4.7,0.3-9.5,0.3-14.3c0-2.4-0.6-4.8-0.8-7.2c0-0.5,0.2-1.4,0.5-1.5c0.6-0.1,1.5,0,1.8,0.3
		c0.6,0.7,1,1.6,1.1,2.5c0.2,1.3-0.2,2.7,1.4,3.4c0.2,0.1,0.2,1,0.1,1.5c-0.6,6.5-0.1,13.1,3.4,18.6c1.9,3,1.4,5.3,1,8.3
		c-0.8,5.9-1.2,11.8-1.6,17.8c-0.2,3.6,1.4,5.4,5,5.7c5.9,0.4,11.9,0.6,17.8,0.9c0.9,0,1.8,0.3,2.8,0.3c2.4,0.2,4.4-0.3,5-2.9
		c6,0.9,11.9,1.7,17.8,2.6c0.2,0,0.3,0.1,0.4,0.1c5.5-0.9,11.1-1.6,16.6-2.9c1.4-0.3,2.3-2.6,3.6-3.8c0.6-0.6,1.6-0.8,2.4-1.2
		c0.3,0.8,0.7,1.6,0.8,2.4c0.7,5.6-3.9,7.9-7.1,11c-4.9,4.9-11.3,7.1-17.9,8.9c-1.6,0.4-3.5,0.8-2.5,3.4c0.1,0.4-0.8,1.5-1.4,1.8
		c-6.4,3.5-12.9,6.6-20,8.5c-3,0.8-5.7,2.8-8.6,4.1c-0.8,0.4-1.8,0.4-2.6,0.3c-3-0.1-6.1-0.4-8.8,1.4c-2.6,1.6-4.1,3.8-5.3,6.9
		c-1.6,4.2-1.9,8.5-2.1,12.8c-0.2,3.5,0.6,4.4,4,4.9c5.4,0.8,10.9,1.5,16.3,2c3.5,0.3,7.1,0,10.6,0c0.3,0,0.7-0.3,1.1-0.4
		c-0.1-0.5-0.3-1-0.3-1.4c0.1-1.1,0.2-2.2,0.4-3.3c0.9,0.1,1.7,0.2,2.6,0.4c2.6,0.5,5.2,1.2,7.9,1.7c0.6,0.1,1.2-0.1,1.8-0.2
		c2.3-0.5,4.3-0.3,6.4,0.9c2.5,1.4,5.2,2.3,8,2.9c6,1.4,12,2.6,18.1,3.5c3.5,0.5,7.1,0.4,10.6,0.6c1.3,0.1,3-0.4,3.1,1.5
		c0.1,1.9-1.7,1.4-3,1.5c-4.1,0.4-8.3,1.3-12.4,1.3c-4.3,0-8.6-0.9-12.8-1.3c-1.8-0.2-3.7-0.3-5.6-0.4c-0.4,0-1,0.1-1.1,0.2
		c-0.5,2.7-2.5,1.7-4.1,1.6c-4.8-0.4-9.6-0.9-14.4-1.4c-6.9-0.7-13.7-0.2-20.5,0.8c-0.7,0.1-1.4,0.1-2.1,0.1c-2.1,0-4.2-0.5-5.3,2.4
		c-0.5,1.4-2.3,2.1-4.2,1.8c-1.9-0.4-2.6,0.5-2.6,2.4c0.1,4.3,0,8.6,0,12.9c0.1-0.1,0.4-0.4,0.7-0.5c0.8-0.3,1.7-0.4,2.5-0.7
		c0,0.8,0.1,1.6-0.1,2.3c-1.8,4.2-2.5,8.6-2.7,13.2c0,0.6-0.3,1.2-0.4,1.8c-0.1,2.1-0.2,4.1-0.1,6.2c0.1,3.4,0.4,6.7,0.7,10.1
		c0.2,2.1,0.4,4.4,1.2,6.3c1.3,3.1,1.1,6.3,1.2,9.6c0.1,3.1,0.3,6.2,0.9,9.2c0.2,0.9,1.7,1.6,2.5,2.4c0.5,0.5,1.1,1.1,1.2,1.6
		c0.1,0.7-0.4,1.4-0.6,2.2c-0.9,3.8-1.1,5,3.3,6.9c5.1,2.2,10.4,1.8,16.3,2.2c-1-1.1-1.7-1.9-2.5-2.7c0-2.2,1.6-2.1,3.2-1.9
		c6.8,0.9,13.6,1.9,20.5,2.5c4.5,0.4,9,0.4,13.5,0.6c4.2,0.2,8.4,0.6,12.6,0.8c2.2,0.1,4.5-0.1,6.7-0.4c0.6-0.1,1.2-0.6,1.7-1.1
		c2.1-2.3,4.2-2.7,6.8-1c2.9,1.9,5.9,1.8,9,0.7c1.9-0.7,4-1.2,6-1.9c0.6-0.2,1.2-0.8,1.7-1.3c2.2-2.1,1-3.6-0.8-5
		c-0.8-0.7-1.6-1.4-2.6-2.4c0.8-1.1,1.7-2.2,2.5-3.4c0.7-0.9,1.4-1.9,1.8-2.9c2.3-5.9,4.7-11.7,6.7-17.7c1.4-4.3,2.5-8.7,2.1-13.3
		c-0.1-0.9-0.8-1.7-0.8-2.6c0-0.8,0.4-1.6,0.7-2.4c0.7,0.4,1.9,0.7,2.1,1.3c2.3,6.2,3.5,12.3,0.3,18.7c-2.6,5.2-4.7,10.8-2.2,16.7
		c1.1,2.5,2.4,4.9,4,7.1c1,1.4,0.6,2.4,0.1,3.6c-1.9,4-4.2,7.9-5.6,12.1c-0.7,2.2,0,4.9,0.2,7.3c0.1,1.3,0.8,2.5,1,3.7
		c0.1,0.4,0,1.3-0.3,1.4c-0.6,0.2-1.6,0.4-1.9,0.1c-1.2-1.4-2.4-2.9-3.2-4.6c-1.7-3.5-3.7-4-7.6-3.7c-5.9,0.6-11.9,0.6-17.8,0.2
		c-5.2-0.3-10.4-1.7-15.7-2.2C284.4,237,281.9,238.1,279.6,238.5c0,0.1-0.1,0-0.1,0L279.6,238.5z M89.4,256.8
		c-0.1,0-0.2,0.1-0.3,0.1c0.8,2.7,1.3,5.5,2.5,7.9c2.7,5.6,9.8,6.9,13.6,2.3c2.1-2.6,3.3-6.3,4-9.7c1-4.8,1.8-9.5,5.3-13.3
		c0.3-0.4,0.4-1.3,0.1-1.8c-0.3-0.6-1-1.3-1.7-1.4c-4-0.9-8-1.4-11.9-2.5c-2-0.5-3.7-0.7-5.3,0.6c-2.5,2.1-5.1,4.2-7.3,6.7
		c-0.7,0.8-0.6,3.7,0.1,4.2c2.4,1.6,1.9,3.2,1,5.1C89.3,255.5,89.4,256.2,89.4,256.8z M257.6,77.5c-2-0.4-3.8-0.8-5.6-1
		c-2.7-0.3-5.9-0.9-7.6,1.5c-1.9,2.6-3.9,2.5-6.4,2c-4.8-0.9-9.7-1.5-14.6-2.3c-1.6-0.2-2.1,0.5-2.2,2.1c-0.3,4.3-0.9,8.6-1.3,12.9
		c-0.1,0.9-0.2,1.7-0.3,3.1c1.2-0.6,1.8-1,2.5-1.3c2.2-1,4.3-2.2,6.5-3c3.6-1.2,7.4-1.9,10.8-3.4c3.6-1.5,7.5-2.4,10.3-5.9
		C251.4,80.2,254.8,79.2,257.6,77.5z M176.3,130.2c0.8,0.3,1.1,0.5,1.4,0.5c5.9,1,11.5-1.2,17.2-1.3c0.1,0,0.3-0.1,0.4-0.2
		c1.8-2.1,3.8-1.3,5.9-0.5c4.5,1.7,7.6,0.1,7.9-4.5c0.2-3.9-0.4-7.8-0.7-12.5c-2.9,0.8-5.4,1-7.3,2.1c-3.2,1.8-6,4.3-9.2,6.6
		c0.7,0.8,1.2,1.3,1.8,1.9c-0.8,0.7-1.5,1.7-2.3,2c-3.7,1.2-7.4,2.2-11.1,3.5C179,128.2,177.9,129.2,176.3,130.2z"/>
</g>
</svg>
